<svg width="174" height="200" viewBox="0 0 174 200" xmlns="http://www.w3.org/2000/svg" xmlns:xlink="http://www.w3.org/1999/xlink"><title>Logo-icon/logo_icon@1x</title><defs><path id="a" d="M0 200h173.204V0H0v200z"/></defs><g fill="none" fill-rule="evenodd"><path d="M153.098 81.536c-.314 0-.62-.026-.928-.046-10.7 18.532-12.094 20.948-17.414 30.174 1.744 2.326 2.788 5.206 2.788 8.336 0 7.694-6.236 13.93-13.928 13.93-7.694 0-13.93-6.236-13.93-13.93 0-.426.026-.846.062-1.262L62.416 91.392c-2.52 2.516-6 4.074-9.844 4.074-1.226 0-2.408-.174-3.54-.472l-15.8 27.614c2.45 2.51 3.964 5.938 3.964 9.724 0 7.446-5.846 13.51-13.196 13.894l63.958 36.926 71.476-41.266V80c-1.902.976-4.052 1.536-6.336 1.536" fill="#3A3734"/><mask id="b" fill="#fff"><use xlink:href="#a"/></mask><path d="M166.822 53.684L86.602 7.368 6.38 53.684v92.632l80.222 46.316 80.22-46.316V53.684zM0 150V50L86.602 0l86.602 50v100l-86.602 50L0 150z" fill="#3A3734" mask="url(#b)"/><path d="M38.16 81.45c0-7.694 6.236-13.93 13.93-13.93s13.93 6.236 13.93 13.93c0 .404-.026.8-.06 1.196l47.418 27.332c2.514-2.468 5.954-3.994 9.756-3.994 1.072 0 2.112.134 3.114.362l16.608-28.894c-2.572-2.528-4.17-6.042-4.17-9.932 0-6.682 4.708-12.26 10.986-13.612L87.476 18 16 59.266v60.818c2.01-1.122 4.32-1.768 6.784-1.768.414 0 .82.026 1.224.062 10.396-18.004 11.666-20.2 16.672-28.95-1.584-2.262-2.52-5.008-2.52-7.978" fill="#673AB7"/></g></svg>